<svg xmlns="http://www.w3.org/2000/svg" viewBox="0 0 770 904" width="770" height="904" fill="none">
    <g clip-path="url(#a)">
        <path fill="#EAF2FF" d="M0 0h770v904H0V0Z"/>
        <path fill="#00ABC6"
              d="M170 37h206l.148 65.621c.036 13.74.072 27.481.11 41.221l.059 21.668.008 2.742c.039 14.563.072 29.125.103 43.688.031 14.974.069 29.948.115 44.922.028 9.22.05 18.441.064 27.661.011 6.345.029 12.69.052 19.035.013 3.647.024 7.293.025 10.94.013 21.952.782 43.784 4.191 65.502l.531 3.428C388.27 426.557 405.73 467.176 436 499l1.597 1.695c25.763 27.196 58.188 44.681 94.626 52.844C534 554 534 554 536 555V332h78a35105.204 35105.204 0 0 1 .385 103.271l.005 2.195c.031 11.714.086 23.427.15 35.141.066 12.026.104 24.051.119 36.077.008 6.752.029 13.504.081 20.256.048 6.358.062 12.715.052 19.073.002 2.331.016 4.662.042 6.993.234 21.319.234 21.319-6.131 28.363L607 585l-2.047 2.742c-11.653 14.593-24.798 28.859-39.574 40.344-2.371 1.826-2.371 1.826-4.227 3.828-2.348 2.432-3.946 4.027-7.428 4.198C519.097 632.283 483.874 619.77 453 604l-2.698-1.37c-21.663-11.13-42.036-24.95-59.954-41.47a222.594 222.594 0 0 0-4.727-4.226C362.823 537.063 345.127 511.578 331 485l-.998-1.846c-17.555-32.679-26.385-68.349-31.252-104.904l-.495-3.653C296.882 363.676 296.529 353.1 296 342h-47c1.031 18.479 2.082 36.715 5 55l.495 3.18c7.293 45.834 25.01 90.034 53.505 126.82l2.078 2.723C322.719 545.935 337.681 561.497 354 574l3.926 3.078c42.742 33.337 92.098 56.235 144.136 70.922l2.035.576c7.912 2.225 15.782 4.142 23.903 5.424-1.276 3.829-2.698 4.404-6.047 6.59l-3.217 2.108a3401.49 3401.49 0 0 1-3.486 2.24l-1.779 1.15c-21.8 14.088-44.539 26.749-68.533 36.724l-2.432 1.042c-6.849 2.736-11.535 2.027-18.342-.717a557.476 557.476 0 0 1-5.539-2.449l-3.046-1.352A1230.14 1230.14 0 0 1 406 695l-3.045-1.389C367.122 677.134 331.338 657.371 301 632l-2.965-2.441C252.504 591.797 218.54 545.128 197 490l-1.098-2.801C182.078 451.541 174.542 413.996 171 376l-.264-2.611c-.948-10.445-.863-20.869-.834-31.346l.003-5.322c.006-6.511.02-13.022.033-19.533L170 273h126V109H170V37Z"/>
        <path fill="#00AAC6"
              d="m501.969 36.602 3.496-.009c2.434-.002 4.868.003 7.302.016 3.72.016 7.439 0 11.159-.02 2.368.003 4.737.007 7.105.013l3.362-.019c6.578.06 11.429.485 16.47 5.136l1.45 1.781 1.488 1.781c2.147 3.077 2.32 5.758 2.297 9.387l-.01 2.705-.025 2.815-.014 2.85c-.012 2.32-.028 4.641-.049 6.962l3.254-.047c4.02-.055 8.04-.09 12.06-.118 1.733-.015 3.466-.035 5.199-.061a797.56 797.56 0 0 1 7.514-.067c.763-.015 1.526-.03 2.312-.047 7.311-.002 14.522 1.593 20.036 6.653l1.898 1.675c4.175 4.864 5.104 9.237 5.121 15.544l.019 2.237c.016 2.461.012 4.923.007 7.385a2879.616 2879.616 0 0 1 .049 19.707c0 4.011.008 8.022.017 12.033.019 9.465.022 18.93.015 28.396-.007 9.754.016 19.508.053 29.263.031 8.383.042 16.766.038 25.149-.002 5.003.004 10.006.028 15.009.023 4.708.021 9.415 0 14.122-.003 1.723.002 3.447.016 5.17.133 17.073.133 17.073-5.636 23.997-2.352 2.156-2.352 2.156-4.625 3.5l-2.289 1.406c-3.92 2.056-7.024 2.225-11.391 2.241l-1.946.011c-2.156.011-4.311.015-6.466.019l-4.633.02c-5.075.021-10.149.031-15.224.041l-5.244.013c-8.213.019-16.426.033-24.639.041-9.475.01-18.95.036-28.425.077-7.327.03-14.653.045-21.98.048-4.374.002-8.749.011-13.123.037-4.118.023-8.235.027-12.354.017-1.507-.001-3.015.006-4.522.019-9.169.079-16.175-.14-23.381-6.455l-1.633-1.972-1.68-1.965c-3.261-4.733-3.699-8.786-3.719-14.479l-.016-2.223a1203.78 1203.78 0 0 1-.016-7.36c-.008-1.761-.016-3.522-.026-5.283-.022-4.782-.03-9.563-.035-14.344-.004-2.988-.01-5.976-.017-8.965a15535.78 15535.78 0 0 1-.042-31.286c-.003-9.715-.033-19.43-.075-29.145-.035-8.346-.05-16.692-.051-25.038-.001-4.982-.009-9.964-.038-14.947-.026-4.687-.028-9.374-.012-14.062.002-1.718-.005-3.435-.021-5.152-.084-9.697-.001-16.969 7.03-24.277 6.356-5.845 12.557-6.986 20.808-6.83l2.593.013c2.71.017 5.42.054 8.13.093 1.847.015 3.694.028 5.541.04 4.507.034 9.014.085 13.521.147l-.095-1.785c-.94-20.25-.94-20.25 4.197-26.692 6.301-5.056 12.113-4.964 19.867-4.921Z"/>
        <path fill="#EAF2FF" d="M448 118h138v136H448V118Z"/>
        <path fill="#00AAC6"
              d="M240.875 164.75A105.134 105.134 0 0 1 245 168l2.078 1.672C253.682 175.57 259.624 185.149 261 194c.824 15.25-.969 26.904-10.746 39.195-7.426 8.121-18.027 13.079-28.945 14.176-14.341.246-25.746-3.218-36.309-13.371-9.101-8.839-12.815-19.839-13.375-32.312.292-12.164 5.209-22.289 13.547-30.942 4.535-4.246 9.032-7.495 14.828-9.746l2.301-.902c12.811-4.434 27.075-2.592 38.574 4.652Z"/>
        <path fill="#02A9C5"
              d="M171.93 779.676c10.843 6.935 15.76 15.875 18.758 28.136 1.381 14.092-.801 26.531-8.813 38.313-5.014 5.681-13.264 10.237-20.799 11.094-2.135.121-4.251.161-6.388.156l-2.279-.005c-8.239-.182-14.347-2.676-20.409-8.37l-2-3-1 40h-18V778h17l1 11 2.375-3.188c9.627-10.889 27.667-12.535 40.555-6.136ZM264.445 782.508c8.31 5.896 13.167 13.656 15.555 23.492.443 3.615.525 7.173.5 10.812l-.017 2.933C280.191 831.45 276.466 839.889 268 848c-9.182 8.699-20.243 9.466-32.215 9.273-9.825-.387-17.894-4.278-24.785-11.273-8.322-10.264-11.22-21.938-10-35 1.722-11.407 6.861-20.811 16-28 14.206-8.475 33.166-9.297 47.445-.492Z"/>
        <path fill="#03A9C5"
              d="M85 757c5.372 4.263 9.307 9.261 11 16v8H78l-4-8c-6.501-6.231-10.868-7.46-19.727-7.32-5.349.523-9.316 2.18-12.953 6.156-2.353 3.857-2.03 7.806-1.32 12.164 3.722 6.483 9.627 8.678 16.6 10.785 2.731.723 5.47 1.41 8.212 2.09C77.534 800.225 88.177 803.673 96 815c3.937 8.038 1.947 15.826-.746 23.941-2.812 6.859-7.13 10.401-13.52 13.918-7.697 3.211-14.771 4.675-23.109 4.578l-2.776-.02c-7.17-.17-13.35-1.245-19.849-4.417l-2.215-1.063c-7.24-4.002-13.238-10.186-15.785-18.125-1.03-3.88-1-6.591-1-10.812h19l3 9c3.44 4.423 7.624 7.429 13 9 8.059.941 16.177.88 23-4 2.72-2.919 3.451-4.967 3.5-8.938-.137-3.577-.37-4.863-2.375-7.937-7.074-4.81-15.44-6.889-23.625-9.063-12.054-3.328-22.528-6.83-29.387-17.867-3.812-7.517-4.658-15.846-2.308-23.98 3.732-8.326 10.057-14.165 18.445-17.653C54.022 746.18 72.072 747.851 85 757Z"/>
        <path fill="#02A9C5"
              d="M485 757c5.164 4.729 9.747 9.928 11 17v7h-18l-4-8c-6.501-6.231-10.868-7.46-19.727-7.32-5.488.537-9.123 2.505-13.273 6.007-1.626 3.761-1.608 7.292-1 11.313 2.566 5.666 6.465 7.704 12 10 3.881 1.26 7.81 2.314 11.75 3.375 13.432 3.796 24.441 7.192 32.402 19.391 2.373 6.254 1.837 14.994-.097 21.332-4.139 8.628-10.697 14.424-19.571 17.882-13.175 3.92-28.927 3.814-41.484-1.98-7.363-4.23-14.058-10.949-17-19-.519-3.677-.774-7.287-1-11h19l2 8c3.354 5.13 7.093 8.402 13 10 8.71.934 15.53.687 23-4h2c2.637-5.275 2.662-10.231 1.312-15.875-1.725-2.793-3.26-3.021-6.312-4.125l-2.262-.895c-5.071-1.919-10.139-3.505-15.382-4.865C440.954 808 430.49 804.051 423 793c-3.51-6.759-4.221-14.212-2.344-21.574 2.905-8.176 7.515-14.198 15.219-18.301 15.535-6.918 35.127-6.438 49.125 3.875Z"/>
        <path fill="#02AAC6"
              d="M567 143c3.714 2.273 6.36 4.938 8 9 .611 4.19-.078 7.746-2.6 11.175l-2.113 2.262-2.473 2.649c-5.454 5.678-11.021 11.242-16.599 16.797l-3.93 3.925c-3.415 3.412-6.834 6.821-10.253 10.229-3.502 3.491-7 6.985-10.499 10.479A36053.461 36053.461 0 0 1 506 230c-5.359-4.479-10.364-9.203-15.305-14.137l-2.317-2.307a5432.85 5432.85 0 0 1-4.805-4.797c-2.456-2.455-4.921-4.901-7.385-7.347a5155.833 5155.833 0 0 1-4.68-4.674l-2.238-2.216-2.055-2.064-1.813-1.809c-2.146-2.524-2.407-4.701-2.714-7.962.371-4.389 1.505-6.335 4.312-9.687 3.415-2.59 6.833-2.431 11-2 6.266 3.396 10.927 8.705 15.875 13.75l2.664 2.691c2.158 2.182 4.312 4.368 6.461 6.559 3.684-1.543 5.994-3.769 8.781-6.602l1.396-1.409a945.536 945.536 0 0 0 2.982-3.029c1.572-1.602 3.151-3.197 4.731-4.791 4.491-4.53 8.97-9.074 13.445-13.62 2.741-2.784 5.489-5.56 8.242-8.332a780.65 780.65 0 0 0 3.127-3.177 764.73 764.73 0 0 1 4.386-4.438l2.513-2.553c4.727-4.041 8.395-4.628 14.397-3.049Z"/>
        <path fill="#02A9C4"
              d="M505 778h18c4.841 11.268 9.06 22.75 13.312 34.25l2.245 6.051c1.817 4.899 3.631 9.798 5.443 14.699 2.847-6.226 5.412-12.518 7.82-18.926l1.045-2.757c1.089-2.876 2.175-5.753 3.26-8.629 1.092-2.895 2.186-5.79 3.281-8.683.679-1.792 1.356-3.585 2.031-5.379l.931-2.459.811-2.152c.836-2.051 1.831-4.034 2.821-6.015h18c-5.347 14.508-11.045 28.875-16.749 43.245-1.126 2.836-2.25 5.673-3.371 8.51-10.697 27.056-10.697 27.056-14.888 36.85l-1.469 3.435c-3.162 6.146-7.777 12.059-14.148 15.085-6.13 1.789-13.045 1.098-19.375.875v-14l5.688-.625c5.315-.828 5.315-.828 9.374-4.063 3.725-6.367 5.393-9.966 3.938-17.312a132.6 132.6 0 0 0-2.684-7.189l-.828-2.062c-.896-2.228-1.804-4.451-2.711-6.675l-1.879-4.664a4800.64 4800.64 0 0 0-4.946-12.223 9457.002 9457.002 0 0 1-7.93-19.617c-.923-2.285-1.85-4.568-2.779-6.85l-1.689-4.178-1.498-3.691C505 780 505 780 505 778Z"/>
        <path fill="#01A8C4"
              d="M654 780c6.22 4.895 9.057 11.485 11 19 .492 4.528.47 8.993.391 13.543l-.018 3.787c-.018 3.283-.054 6.565-.098 9.848-.042 3.366-.06 6.732-.08 10.097-.044 6.576-.112 13.15-.195 19.725h-18l-.028-4.83c-.04-5.934-.106-11.868-.18-17.802-.028-2.564-.049-5.129-.063-7.693-.021-3.694-.068-7.388-.12-11.081l-.003-3.455c-.115-6.279-.445-12.114-4.606-17.139-5.004-3.015-10.336-2.683-16-2-4.238 1.408-7.002 3.365-9.34 7.195-2.356 5.082-3.757 9.872-3.865 15.482l-.061 2.79-.05 2.986-.063 3.077c-.066 3.24-.125 6.48-.183 9.72l-.131 6.594A9652.13 9652.13 0 0 0 612 856h-17v-78h17l1 11 2.438-3.188c9.793-11.44 25.675-12.789 38.562-5.812Z"/>
        <path fill="#02A9C5"
              d="m715.813 776.563 2.668.022c10.385.263 18.908 3.15 26.519 10.415 4.52 5.212 7.128 10.005 7 17-15.332 1.383-15.332 1.383-19.289-1.898-1.461-2.414-1.461-2.414-2.508-4.84-1.607-3.021-3.09-3.878-6.203-5.262-6.119-.877-12.885-1.161-18.5 1.75-5.018 3.872-7.664 9.297-9.5 15.25-1.206 9.695-.355 18.408 4.688 26.813 4.991 4.721 9.547 6.436 16.437 6.625 6.087-.23 9.858-1.309 14.125-5.813 2.053-2.884 2.053-2.884 3.75-7.625h18c-1.425 8.98-4.681 15.669-11.937 21.375C731 857.307 719.894 858.028 708 857c-10.317-2.152-19.071-8.308-25-17-6.155-11.603-6.558-24.63-4.422-37.477C681.603 792.982 689.39 784.918 698 780c6.115-2.719 11.148-3.518 17.813-3.437Z"/>
        <path fill="#01A8C5"
              d="M360 756h17v22h21v13h-21c.074 5.73.157 11.458.262 17.188.034 1.947.062 3.895.084 5.842.034 2.806.086 5.61.142 8.415l.02 2.624c.121 5.027.693 8.584 3.492 12.931 5.326 3.96 11.597 3.644 18 4v15c-11.522.394-21.372.636-30.938-6.75-4.788-4.524-7.813-10.801-8.182-17.401l.006-2.342.001-2.669.015-2.854.005-2.942c.005-3.097.018-6.195.031-9.292l.013-6.305c.011-5.148.028-10.297.049-15.445h-11v-13h11v-22Z"/>
        <path fill="#EAF2FF"
              d="M251.25 792.125c6.034 4.114 10.325 9.633 11.75 16.875.822 10.295.568 20.073-6.254 28.269-4.84 4.797-9.498 5.989-16.246 6.293-7.523-.244-11.609-2.671-16.813-7.875-5.347-8.516-5.578-16.914-4.687-26.687 1.803-7.009 5.791-13.101 12.062-16.813 6.908-2.792 13.137-2.503 20.188-.062ZM161.375 792.437c6.363 3.725 9.746 10.672 11.625 17.563.882 9.766.259 18.065-5.188 26.312-5.186 4.957-9.587 6.914-16.812 7.188-6.513-.263-11.191-1.554-15.75-6.336-4.976-6.244-6.627-12.059-6.563-20.039l.013-2.144c.166-7.671 1.836-13.361 7.3-18.981 7.465-5.484 16.539-7.323 25.375-3.563Z"/>
        <path fill="#04A9C5"
              d="m335.125 775.875 2.695-.008C340 776 340 776 341 777c.073 2.697.092 5.367.062 8.062l-.013 2.299c-.012 1.88-.03 3.759-.049 5.639l-2.125-.105c-7.235-.207-13.263-.129-18.852 4.875-6.564 7.064-7.326 13.529-7.437 22.878l-.059 3.069c-.059 3.219-.106 6.438-.152 9.658-.038 2.189-.077 4.378-.117 6.566A4777.62 4777.62 0 0 0 312 856h-18v-78h18l1 12 2.5-3.688c4.958-6.642 11.265-10.461 19.625-10.437Z"/>
        <path fill="#EAF2FF" d="M503 60h28v18h-28V60Z"/>
        <path fill="#08A0BF"
              d="M417 823h19l2 8c1.855 3.08 4.461 5.461 7 8-3.295-.244-4.199-1.204-6.562-3.625-2.539-3.228-3.984-6.549-5.438-10.375h-14v7c-2-3-2-3-2-9Z"/>
        <path fill="#1AA6C4"
              d="M728 793c3.354 1.388 5.113 2.886 7 6v3h15l-2-7h2c1.876 3.166 2.097 5.358 2 9-15.269 1.377-15.269 1.377-19.43-1.934-1.489-2.314-2.604-4.493-3.57-7.066l-1-2Z"/>
        <path fill="#0095BA"
              d="M440.31 70.773h2.547c.898.01 1.796.02 2.721.032l2.808.008c2.955.011 5.909.036 8.864.062 2.005.01 4.01.019 6.016.027 4.911.022 9.823.057 14.734.098v1l-3.577.044c-4.394.058-8.789.135-13.183.218-1.899.034-3.798.062-5.698.084-2.735.034-5.471.086-8.206.142l-2.558.02c-5.022.124-8.361.868-12.778 3.492a202.564 202.564 0 0 1-5 2c4.185-4.418 7.082-7.265 13.31-7.227Z"/>
        <path fill="#049EBE"
              d="M338 777h3v16l-4.875-.188c-5.812-.022-10.694 1.209-16.125 3.188 2.371-2.745 4.537-3.938 8-5 3.69-.249 7.295-.089 11 0l-1-14Z"/>
        <path fill="#2CADC7"
              d="m206 795 2 1-.621 1.828-.816 2.422-.809 2.391c-1.125 3.52-1.874 6.772-2.07 10.468l-.127 2.286-.119 2.355-.131 2.402A1907.81 1907.81 0 0 0 203 826c-3.596-5.393-2.525-12.122-1.395-18.316 1.083-4.481 2.189-8.617 4.395-12.684Z"/>
        <path fill="#01A0BF"
              d="M552 44c2.737 2.5 3.914 4.357 4.114 8.176l-.016 2.492-.01 2.705-.026 2.815-.013 2.85c-.012 2.32-.028 4.641-.049 6.962l-2-1V49h-2v-5Z"/>
        <path fill="#08A2BF" d="M736 829h17l-2 4v-2h-15v-2Z"/>
        <path fill="#14A5C4"
              d="M455 764c7.667-.774 12.221-.001 18.418 4.687L475 770l-2 2-2.25-1.875c-3.833-2.962-6.667-4.324-11.5-4.75l-2.422-.227L455 765v-1Z"/>
        <path fill="#1BA7C6"
              d="m206 795 2 1-.621 1.828-.817 2.422-.808 2.391A84.366 84.366 0 0 0 204 809h-2c.539-5.277 1.773-9.256 4-14Z"/>
        <path fill="#13A5C3"
              d="M273 606c4.263.474 6.215 2.922 9 6l2 3c-3 0-3 0-5.043-1.715l-2.145-2.223-2.167-2.214C273 607 273 607 273 606Z"/>
        <path fill="#14A9C4"
              d="M327 551c4.274 1.583 6.265 4.506 9 8-3 0-3 0-4.605-1.242l-1.583-1.633-1.605-1.617C327 553 327 553 327 551Z"/>
        <path fill="#089FBE" d="M438 71v2c-3.613 1.848-7.209 3.55-11 5 6.632-7 6.632-7 11-7Z"/>
        <path fill="#0EA1BE"
              d="m134 783 2 1-1.375 1.25c-1.685 1.814-2.618 3.503-3.625 5.75h-2c1.186-3.375 2.276-5.647 5-8Z"/>
        <path fill="#0FA2C2" d="M552 44c2.523 1.974 2.993 2.968 3.688 6.188L556 53h-2v-4h-2v-5Z"/>
    </g>
    <defs>
        <clipPath id="a">
            <path fill="#fff" d="M0 0h770v904H0z"/>
        </clipPath>
    </defs>
</svg>